<svg width="20" height="20" viewBox="0 0 20 20" fill="none" xmlns="http://www.w3.org/2000/svg">
<path d="M4.82743 9.65515C5.01778 9.65515 5.17226 9.80929 5.17226 9.99998V12.0689C5.17226 14.731 7.33778 16.8965 9.99985 16.8965C12.6619 16.8965 14.8274 14.731 14.8274 12.0689V9.99998C14.8274 9.80929 14.9819 9.65515 15.1723 9.65515C15.3626 9.65515 15.5171 9.80929 15.5171 9.99998V12.0689C15.5171 14.9948 13.2261 17.3893 10.3447 17.5686V19.3103H12.0688C12.2592 19.3103 12.4136 19.4645 12.4136 19.6552C12.4136 19.8458 12.2592 20 12.0688 20H7.93088C7.74054 20 7.58606 19.8458 7.58606 19.6552C7.58606 19.4645 7.74054 19.3103 7.93088 19.3103H9.65502V17.5686C6.77364 17.3893 4.48261 14.9945 4.48261 12.0689V9.99998C4.48261 9.80929 4.63709 9.65515 4.82743 9.65515Z" fill="url(#paint0_linear)"/>
<path d="M9.99987 15.8621C7.90849 15.8621 6.20676 14.1603 6.20676 12.069V3.7931C6.20676 1.70172 7.90849 0 9.99987 0C12.0912 0 13.793 1.70172 13.793 3.7931V12.069C13.793 14.1603 12.0912 15.8621 9.99987 15.8621Z" fill="url(#paint1_linear)"/>
<defs>
<linearGradient id="paint0_linear" x1="19.3102" y1="3.23766" x2="-11.027" y2="4.72285" gradientUnits="userSpaceOnUse">
<stop stop-color="#A3B5F1"/>
<stop offset="1" stop-color="#6376B3"/>
</linearGradient>
<linearGradient id="paint1_linear" x1="16.4008" y1="-9.84016" x2="-4.496" y2="-9.38147" gradientUnits="userSpaceOnUse">
<stop stop-color="#A3B5F1"/>
<stop offset="1" stop-color="#6376B3"/>
</linearGradient>
</defs>
</svg>
