<svg width="20" height="20" viewBox="0 0 20 20" fill="none" xmlns="http://www.w3.org/2000/svg">
<circle cx="10" cy="10" r="10" fill="url(#paint0_linear)"/>
<path d="M14.1071 9.10714H11.0714C10.9728 9.10714 10.8929 9.02719 10.8929 8.92857V5.89286C10.8929 5.39978 10.4931 5 10 5C9.50692 5 9.10714 5.39978 9.10714 5.89286V8.92857C9.10714 9.02719 9.02719 9.10714 8.92857 9.10714H5.89286C5.39978 9.10714 5 9.50692 5 10C5 10.4931 5.39978 10.8929 5.89286 10.8929H8.92857C9.02719 10.8929 9.10714 10.9728 9.10714 11.0714V14.1071C9.10714 14.6002 9.50692 15 10 15C10.4931 15 10.8929 14.6002 10.8929 14.1071V11.0714C10.8929 10.9728 10.9728 10.8929 11.0714 10.8929H14.1071C14.6002 10.8929 15 10.4931 15 10C15 9.50692 14.6002 9.10714 14.1071 9.10714Z" fill="white"/>
<defs>
<linearGradient id="paint0_linear" x1="-6.87508" y1="-12.4072" x2="48.1271" y2="-9.88276" gradientUnits="userSpaceOnUse">
<stop stop-color="#A3B5F1"/>
<stop offset="1" stop-color="#6376B3"/>
</linearGradient>
</defs>
</svg>
