<svg width="250" height="250" viewBox="0 0 250 250" fill="none" xmlns="http://www.w3.org/2000/svg">
<path d="M200.512 174.797C179.988 221.918 139.038 235.387 92.0648 214.798C45.0918 194.209 9.3473 153.304 29.8716 106.183C50.3958 59.0621 119.417 23.5701 166.39 44.1589C216.674 66.199 221.036 127.677 200.512 174.797Z" fill="#475993"/>
<path d="M156.584 212.503C111.269 236.542 70.8705 221.491 46.9074 176.033C22.9442 130.576 20.3809 76.2397 65.6962 52.2012C111.012 28.1627 187.046 43.5245 211.009 88.9823C236.661 137.645 201.9 188.465 156.584 212.503Z" fill="#8B9DD9"/>
<g filter="url(#filter0_d)">
<path d="M211.113 112.363C230.429 161.825 204.924 187.813 155.64 207.191C106.357 226.568 60.915 233.658 41.5994 184.196C22.2837 134.734 41.8196 61.3072 91.103 41.9296C143.861 21.186 186.988 70.5033 211.113 112.363Z" fill="#FAFAFA"/>
</g>
<path d="M136.64 126.963H126.849V162.653H112.015V126.963H104.96V114.42H112.015V106.304C112.015 100.5 114.786 91.4106 126.981 91.4106L137.969 91.4564V103.631H129.996C128.689 103.631 126.85 104.281 126.85 107.05V114.432H137.936L136.64 126.963Z" fill="#475993"/>
<defs>
<filter id="filter0_d" x="14.251" y="17.0347" width="223.334" height="224.827" filterUnits="userSpaceOnUse" color-interpolation-filters="sRGB">
<feFlood flood-opacity="0" result="BackgroundImageFix"/>
<feColorMatrix in="SourceAlpha" type="matrix" values="0 0 0 0 0 0 0 0 0 0 0 0 0 0 0 0 0 0 127 0"/>
<feOffset/>
<feGaussianBlur stdDeviation="10"/>
<feColorMatrix type="matrix" values="0 0 0 0 0.172549 0 0 0 0 0.172549 0 0 0 0 0.172549 0 0 0 0.14 0"/>
<feBlend mode="normal" in2="BackgroundImageFix" result="effect1_dropShadow"/>
<feBlend mode="normal" in="SourceGraphic" in2="effect1_dropShadow" result="shape"/>
</filter>
</defs>
</svg>
