<svg width="402" height="323" viewBox="0 0 402 323" fill="none" xmlns="http://www.w3.org/2000/svg">
<circle cx="4" cy="33" r="4" fill="#C4C4C4"/>
<circle cx="33" cy="4" r="4" fill="#C4C4C4"/>
<circle cx="81" cy="4" r="4" fill="#C4C4C4"/>
<circle cx="129" cy="4" r="4" fill="#C4C4C4"/>
<circle cx="177" cy="4" r="4" fill="#C4C4C4"/>
<circle cx="225" cy="4" r="4" fill="#C4C4C4"/>
<circle cx="273" cy="4" r="4" fill="#C4C4C4"/>
<circle cx="84" cy="319" r="4" fill="#C4C4C4"/>
<circle cx="132" cy="319" r="4" fill="#C4C4C4"/>
<circle cx="180" cy="319" r="4" fill="#C4C4C4"/>
<circle cx="228" cy="319" r="4" fill="#C4C4C4"/>
<circle cx="276" cy="319" r="4" fill="#C4C4C4"/>
<circle cx="324" cy="319" r="4" fill="#C4C4C4"/>
<circle cx="321" cy="4" r="4" fill="#C4C4C4"/>
<circle cx="365" cy="4" r="4" fill="#C4C4C4"/>
<circle cx="398" cy="25" r="4" fill="#C4C4C4"/>
<circle cx="4" cy="81" r="4" fill="#C4C4C4"/>
<circle cx="4" cy="129" r="4" fill="#C4C4C4"/>
<circle cx="4" cy="177" r="4" fill="#C4C4C4"/>
<circle cx="4" cy="235" r="4" fill="#C4C4C4"/>
<circle cx="4" cy="291" r="4" fill="#C4C4C4"/>
<circle cx="36" cy="319" r="4" fill="#C4C4C4"/>
<circle cx="398" cy="73" r="4" fill="#C4C4C4"/>
<circle cx="398" cy="121" r="4" fill="#C4C4C4"/>
<circle cx="398" cy="169" r="4" fill="#C4C4C4"/>
<circle cx="398" cy="227" r="4" fill="#C4C4C4"/>
<circle cx="398" cy="283" r="4" fill="#C4C4C4"/>
<circle cx="372" cy="319" r="4" fill="#C4C4C4"/>
</svg>
