<svg width="250" height="250" viewBox="0 0 250 250" fill="none" xmlns="http://www.w3.org/2000/svg">
<path d="M200.512 174.797C179.987 221.918 139.038 235.387 92.0646 214.798C45.0915 194.209 9.34705 153.304 29.8713 106.183C50.3956 59.0621 119.416 23.5701 166.389 44.1589C216.674 66.199 221.036 127.677 200.512 174.797Z" fill="#6D02DD"/>
<path d="M156.584 212.503C111.269 236.542 70.8703 221.491 46.9071 176.033C22.944 130.576 20.3806 76.2397 65.696 52.2012C111.011 28.1627 187.045 43.5245 211.008 88.9823C236.661 137.645 201.9 188.465 156.584 212.503Z" fill="#87A8EF"/>
<g filter="url(#filter0_d)">
<path d="M211.113 112.363C230.428 161.825 204.923 187.813 155.64 207.19C106.356 226.568 60.9148 233.658 41.5991 184.196C22.2835 134.734 41.8193 61.307 91.1028 41.9294C143.86 21.1858 186.988 70.503 211.113 112.363Z" fill="#FAFAFA"/>
</g>
<path d="M52.6301 111.8C53.7074 111.8 54.6141 112.163 55.3501 112.888C56.0861 113.613 56.4541 114.504 56.4541 115.56C56.4541 116.616 56.0861 117.507 55.3501 118.232C54.6141 118.957 53.7074 119.32 52.6301 119.32H50.6621V123H48.4541V111.8H52.6301ZM52.6301 117.256C53.0994 117.256 53.4887 117.096 53.7981 116.776C54.1074 116.445 54.2621 116.04 54.2621 115.56C54.2621 115.069 54.1074 114.664 53.7981 114.344C53.4887 114.024 53.0994 113.864 52.6301 113.864H50.6621V117.256H52.6301ZM59.0083 119.848C59.2856 120.851 60.0376 121.352 61.2643 121.352C62.0536 121.352 62.651 121.085 63.0563 120.552L64.7203 121.512C63.931 122.653 62.7683 123.224 61.2323 123.224C59.9096 123.224 58.8483 122.824 58.0483 122.024C57.2483 121.224 56.8483 120.216 56.8483 119C56.8483 117.795 57.243 116.792 58.0323 115.992C58.8216 115.181 59.835 114.776 61.0723 114.776C62.2456 114.776 63.211 115.181 63.9683 115.992C64.7363 116.803 65.1203 117.805 65.1203 119C65.1203 119.267 65.0936 119.549 65.0403 119.848H59.0083ZM58.9763 118.248H63.0563C62.939 117.704 62.6936 117.299 62.3203 117.032C61.9576 116.765 61.5416 116.632 61.0723 116.632C60.5176 116.632 60.059 116.776 59.6963 117.064C59.3336 117.341 59.0936 117.736 58.9763 118.248ZM73.9372 123H71.5372L68.6252 119.368V123H66.5612V115H68.6252V118.52L71.3772 115H73.8412L70.6252 118.952L73.9372 123ZM81.8314 115V123H79.7674V116.984H77.5594V119.656C77.5594 122.131 76.4341 123.245 74.1834 123V121.064C74.6101 121.171 74.9354 121.101 75.1594 120.856C75.3834 120.6 75.4954 120.163 75.4954 119.544V115H81.8314ZM89.7818 115H91.8458V123H89.7818V122.056C89.1631 122.835 88.2938 123.224 87.1738 123.224C86.1071 123.224 85.1898 122.819 84.4218 122.008C83.6645 121.187 83.2858 120.184 83.2858 119C83.2858 117.816 83.6645 116.819 84.4218 116.008C85.1898 115.187 86.1071 114.776 87.1738 114.776C88.2938 114.776 89.1631 115.165 89.7818 115.944V115ZM85.9738 120.632C86.3898 121.048 86.9178 121.256 87.5578 121.256C88.1978 121.256 88.7258 121.048 89.1418 120.632C89.5685 120.205 89.7818 119.661 89.7818 119C89.7818 118.339 89.5685 117.8 89.1418 117.384C88.7258 116.957 88.1978 116.744 87.5578 116.744C86.9178 116.744 86.3898 116.957 85.9738 117.384C85.5578 117.8 85.3498 118.339 85.3498 119C85.3498 119.661 85.5578 120.205 85.9738 120.632ZM102.037 115V123H100.037V118.328L98.0054 121.528H97.7494L95.7014 118.296V123H93.7174V115H95.7494L97.8774 118.36L100.005 115H102.037ZM110.001 115H112.065V123H110.001V122.056C109.382 122.835 108.513 123.224 107.393 123.224C106.326 123.224 105.409 122.819 104.641 122.008C103.883 121.187 103.505 120.184 103.505 119C103.505 117.816 103.883 116.819 104.641 116.008C105.409 115.187 106.326 114.776 107.393 114.776C108.513 114.776 109.382 115.165 110.001 115.944V115ZM106.193 120.632C106.609 121.048 107.137 121.256 107.777 121.256C108.417 121.256 108.945 121.048 109.361 120.632C109.787 120.205 110.001 119.661 110.001 119C110.001 118.339 109.787 117.8 109.361 117.384C108.945 116.957 108.417 116.744 107.777 116.744C107.137 116.744 106.609 116.957 106.193 117.384C105.777 117.8 105.569 118.339 105.569 119C105.569 119.661 105.777 120.205 106.193 120.632ZM123.696 118.904C124.443 119.267 124.816 119.875 124.816 120.728C124.816 121.4 124.582 121.949 124.112 122.376C123.654 122.792 122.998 123 122.144 123H117.936V115H121.824C122.667 115 123.318 115.208 123.776 115.624C124.246 116.04 124.48 116.584 124.48 117.256C124.48 117.96 124.219 118.509 123.696 118.904ZM121.632 116.696H119.872V118.136H121.632C122.219 118.136 122.512 117.896 122.512 117.416C122.512 116.936 122.219 116.696 121.632 116.696ZM121.904 121.256C122.502 121.256 122.8 121 122.8 120.488C122.8 120.264 122.72 120.088 122.56 119.96C122.4 119.832 122.182 119.768 121.904 119.768H119.872V121.256H121.904ZM136.892 113.912H132.412V116.568H136.764V118.68H132.412V123H130.204V111.8H136.892V113.912ZM144.485 115H146.549V123H144.485V122.056C143.866 122.835 142.997 123.224 141.877 123.224C140.81 123.224 139.893 122.819 139.125 122.008C138.368 121.187 137.989 120.184 137.989 119C137.989 117.816 138.368 116.819 139.125 116.008C139.893 115.187 140.81 114.776 141.877 114.776C142.997 114.776 143.866 115.165 144.485 115.944V115ZM140.677 120.632C141.093 121.048 141.621 121.256 142.261 121.256C142.901 121.256 143.429 121.048 143.845 120.632C144.272 120.205 144.485 119.661 144.485 119C144.485 118.339 144.272 117.8 143.845 117.384C143.429 116.957 142.901 116.744 142.261 116.744C141.621 116.744 141.093 116.957 140.677 117.384C140.261 117.8 140.053 118.339 140.053 119C140.053 119.661 140.261 120.205 140.677 120.632ZM152.229 123.224C151.023 123.224 150.015 122.819 149.205 122.008C148.405 121.197 148.005 120.195 148.005 119C148.005 117.805 148.405 116.803 149.205 115.992C150.015 115.181 151.023 114.776 152.229 114.776C153.007 114.776 153.717 114.963 154.357 115.336C154.997 115.709 155.482 116.211 155.813 116.84L154.037 117.88C153.877 117.549 153.631 117.288 153.301 117.096C152.981 116.904 152.618 116.808 152.213 116.808C151.594 116.808 151.082 117.016 150.677 117.432C150.271 117.837 150.069 118.36 150.069 119C150.069 119.629 150.271 120.152 150.677 120.568C151.082 120.973 151.594 121.176 152.213 121.176C152.629 121.176 152.997 121.085 153.317 120.904C153.647 120.712 153.893 120.451 154.053 120.12L155.845 121.144C155.493 121.773 154.997 122.28 154.357 122.664C153.717 123.037 153.007 123.224 152.229 123.224ZM158.555 119.848C158.833 120.851 159.585 121.352 160.811 121.352C161.601 121.352 162.198 121.085 162.603 120.552L164.267 121.512C163.478 122.653 162.315 123.224 160.779 123.224C159.457 123.224 158.395 122.824 157.595 122.024C156.795 121.224 156.395 120.216 156.395 119C156.395 117.795 156.79 116.792 157.579 115.992C158.369 115.181 159.382 114.776 160.619 114.776C161.793 114.776 162.758 115.181 163.515 115.992C164.283 116.803 164.667 117.805 164.667 119C164.667 119.267 164.641 119.549 164.587 119.848H158.555ZM158.523 118.248H162.603C162.486 117.704 162.241 117.299 161.867 117.032C161.505 116.765 161.089 116.632 160.619 116.632C160.065 116.632 159.606 116.776 159.243 117.064C158.881 117.341 158.641 117.736 158.523 118.248ZM170.764 114.776C171.841 114.776 172.759 115.187 173.516 116.008C174.284 116.819 174.668 117.816 174.668 119C174.668 120.184 174.284 121.187 173.516 122.008C172.759 122.819 171.841 123.224 170.764 123.224C169.644 123.224 168.78 122.835 168.172 122.056V123H166.108V111.8H168.172V115.944C168.78 115.165 169.644 114.776 170.764 114.776ZM168.796 120.632C169.212 121.048 169.74 121.256 170.38 121.256C171.02 121.256 171.548 121.048 171.964 120.632C172.391 120.205 172.604 119.661 172.604 119C172.604 118.339 172.391 117.8 171.964 117.384C171.548 116.957 171.02 116.744 170.38 116.744C169.74 116.744 169.212 116.957 168.796 117.384C168.38 117.8 168.172 118.339 168.172 119C168.172 119.661 168.38 120.205 168.796 120.632ZM182.94 122.008C182.118 122.819 181.116 123.224 179.932 123.224C178.748 123.224 177.745 122.819 176.924 122.008C176.113 121.187 175.708 120.184 175.708 119C175.708 117.816 176.113 116.819 176.924 116.008C177.745 115.187 178.748 114.776 179.932 114.776C181.116 114.776 182.118 115.187 182.94 116.008C183.761 116.819 184.172 117.816 184.172 119C184.172 120.184 183.761 121.187 182.94 122.008ZM178.38 120.584C178.796 121 179.313 121.208 179.932 121.208C180.55 121.208 181.068 121 181.484 120.584C181.9 120.168 182.108 119.64 182.108 119C182.108 118.36 181.9 117.832 181.484 117.416C181.068 117 180.55 116.792 179.932 116.792C179.313 116.792 178.796 117 178.38 117.416C177.974 117.832 177.772 118.36 177.772 119C177.772 119.64 177.974 120.168 178.38 120.584ZM192.44 122.008C191.618 122.819 190.616 123.224 189.432 123.224C188.248 123.224 187.245 122.819 186.424 122.008C185.613 121.187 185.208 120.184 185.208 119C185.208 117.816 185.613 116.819 186.424 116.008C187.245 115.187 188.248 114.776 189.432 114.776C190.616 114.776 191.618 115.187 192.44 116.008C193.261 116.819 193.672 117.816 193.672 119C193.672 120.184 193.261 121.187 192.44 122.008ZM187.88 120.584C188.296 121 188.813 121.208 189.432 121.208C190.05 121.208 190.568 121 190.984 120.584C191.4 120.168 191.608 119.64 191.608 119C191.608 118.36 191.4 117.832 190.984 117.416C190.568 117 190.05 116.792 189.432 116.792C188.813 116.792 188.296 117 187.88 117.416C187.474 117.832 187.272 118.36 187.272 119C187.272 119.64 187.474 120.168 187.88 120.584ZM202.5 123H200.1L197.188 119.368V123H195.124V111.8H197.188V118.52L199.94 115H202.404L199.188 118.952L202.5 123ZM57.307 150.36L55.547 151.368L54.523 150.264C53.659 150.904 52.6563 151.224 51.515 151.224C50.363 151.224 49.419 150.925 48.683 150.328C47.9577 149.72 47.595 148.909 47.595 147.896C47.595 147.235 47.755 146.621 48.075 146.056C48.395 145.491 48.859 145.032 49.467 144.68C49.1043 144.104 48.923 143.48 48.923 142.808C48.923 141.859 49.2537 141.085 49.915 140.488C50.5763 139.88 51.4137 139.576 52.427 139.576C53.227 139.576 53.9417 139.784 54.571 140.2C55.211 140.605 55.6857 141.197 55.995 141.976L54.107 143.064C53.7977 142.168 53.2483 141.72 52.459 141.72C52.075 141.72 51.755 141.832 51.499 142.056C51.2537 142.28 51.131 142.563 51.131 142.904C51.131 143.203 51.2003 143.475 51.339 143.72C51.4883 143.965 51.723 144.259 52.043 144.6L54.443 147.224C54.6777 146.723 54.859 146.104 54.987 145.368L56.843 146.424C56.6403 147.288 56.315 148.072 55.867 148.776L57.307 150.36ZM51.659 149.192C52.2137 149.192 52.7097 149.059 53.147 148.792L50.731 146.168C50.7097 146.147 50.699 146.131 50.699 146.12C50.1123 146.483 49.819 147 49.819 147.672C49.819 148.131 49.9737 148.499 50.283 148.776C50.603 149.053 51.0617 149.192 51.659 149.192ZM62.6806 139.8H64.8886V151H62.6806V139.8ZM71.3139 142.776C72.1885 142.776 72.9085 143.069 73.4739 143.656C74.0499 144.243 74.3379 145.053 74.3379 146.088V151H72.2739V146.344C72.2739 145.811 72.1299 145.405 71.8419 145.128C71.5539 144.84 71.1699 144.696 70.6899 144.696C70.1565 144.696 69.7299 144.861 69.4099 145.192C69.0899 145.523 68.9299 146.019 68.9299 146.68V151H66.8659V143H68.9299V143.896C69.4312 143.149 70.2259 142.776 71.3139 142.776ZM78.0043 145.272C78.0043 145.485 78.1429 145.661 78.4203 145.8C78.7083 145.928 79.0549 146.045 79.4603 146.152C79.8656 146.248 80.2709 146.376 80.6763 146.536C81.0816 146.685 81.4229 146.941 81.7003 147.304C81.9883 147.667 82.1323 148.12 82.1323 148.664C82.1323 149.485 81.8229 150.12 81.2043 150.568C80.5963 151.005 79.8336 151.224 78.9163 151.224C77.2736 151.224 76.1536 150.589 75.5563 149.32L77.3483 148.312C77.5829 149.005 78.1056 149.352 78.9163 149.352C79.6523 149.352 80.0203 149.123 80.0203 148.664C80.0203 148.451 79.8763 148.28 79.5883 148.152C79.3109 148.013 78.9696 147.891 78.5643 147.784C78.1589 147.677 77.7536 147.544 77.3483 147.384C76.9429 147.224 76.5963 146.973 76.3083 146.632C76.0309 146.28 75.8923 145.843 75.8923 145.32C75.8923 144.531 76.1803 143.912 76.7563 143.464C77.3429 143.005 78.0683 142.776 78.9323 142.776C79.5829 142.776 80.1749 142.925 80.7083 143.224C81.2416 143.512 81.6629 143.928 81.9723 144.472L80.2123 145.432C79.9563 144.888 79.5296 144.616 78.9323 144.616C78.6656 144.616 78.4416 144.675 78.2603 144.792C78.0896 144.909 78.0043 145.069 78.0043 145.272ZM87.8013 144.984H85.9933V148.312C85.9933 148.589 86.0626 148.792 86.2013 148.92C86.3399 149.048 86.5426 149.123 86.8093 149.144C87.0759 149.155 87.4066 149.149 87.8013 149.128V151C86.3826 151.16 85.3799 151.027 84.7933 150.6C84.2173 150.173 83.9293 149.411 83.9293 148.312V144.984H82.5373V143H83.9293V141.384L85.9933 140.76V143H87.8013V144.984ZM95.0865 143H97.1505V151H95.0865V150.056C94.4678 150.835 93.5985 151.224 92.4785 151.224C91.4118 151.224 90.4945 150.819 89.7265 150.008C88.9692 149.187 88.5905 148.184 88.5905 147C88.5905 145.816 88.9692 144.819 89.7265 144.008C90.4945 143.187 91.4118 142.776 92.4785 142.776C93.5985 142.776 94.4678 143.165 95.0865 143.944V143ZM91.2785 148.632C91.6945 149.048 92.2225 149.256 92.8625 149.256C93.5025 149.256 94.0305 149.048 94.4465 148.632C94.8732 148.205 95.0865 147.661 95.0865 147C95.0865 146.339 94.8732 145.8 94.4465 145.384C94.0305 144.957 93.5025 144.744 92.8625 144.744C92.2225 144.744 91.6945 144.957 91.2785 145.384C90.8625 145.8 90.6545 146.339 90.6545 147C90.6545 147.661 90.8625 148.205 91.2785 148.632ZM105.15 143H107.166V150.616C107.166 151.853 106.755 152.797 105.934 153.448C105.123 154.099 104.142 154.424 102.99 154.424C102.126 154.424 101.363 154.259 100.702 153.928C100.051 153.597 99.5501 153.112 99.1981 152.472L100.958 151.464C101.363 152.211 102.062 152.584 103.054 152.584C103.705 152.584 104.217 152.413 104.59 152.072C104.963 151.731 105.15 151.245 105.15 150.616V149.752C104.542 150.563 103.689 150.968 102.59 150.968C101.459 150.968 100.51 150.573 99.7421 149.784C98.9848 148.984 98.6061 148.013 98.6061 146.872C98.6061 145.741 98.9901 144.776 99.7581 143.976C100.526 143.176 101.47 142.776 102.59 142.776C103.689 142.776 104.542 143.181 105.15 143.992V143ZM101.294 148.456C101.721 148.861 102.259 149.064 102.91 149.064C103.561 149.064 104.094 148.861 104.51 148.456C104.937 148.04 105.15 147.512 105.15 146.872C105.15 146.243 104.937 145.725 104.51 145.32C104.094 144.904 103.561 144.696 102.91 144.696C102.259 144.696 101.721 144.904 101.294 145.32C100.878 145.725 100.67 146.243 100.67 146.872C100.67 147.512 100.878 148.04 101.294 148.456ZM111.102 144.376C111.294 143.864 111.608 143.48 112.046 143.224C112.494 142.968 112.99 142.84 113.534 142.84V145.144C112.904 145.069 112.339 145.197 111.838 145.528C111.347 145.859 111.102 146.408 111.102 147.176V151H109.038V143H111.102V144.376ZM120.524 143H122.588V151H120.524V150.056C119.905 150.835 119.036 151.224 117.916 151.224C116.849 151.224 115.932 150.819 115.164 150.008C114.407 149.187 114.028 148.184 114.028 147C114.028 145.816 114.407 144.819 115.164 144.008C115.932 143.187 116.849 142.776 117.916 142.776C119.036 142.776 119.905 143.165 120.524 143.944V143ZM116.716 148.632C117.132 149.048 117.66 149.256 118.3 149.256C118.94 149.256 119.468 149.048 119.884 148.632C120.311 148.205 120.524 147.661 120.524 147C120.524 146.339 120.311 145.8 119.884 145.384C119.468 144.957 118.94 144.744 118.3 144.744C117.66 144.744 117.132 144.957 116.716 145.384C116.3 145.8 116.092 146.339 116.092 147C116.092 147.661 116.3 148.205 116.716 148.632ZM133.308 142.776C134.225 142.776 134.956 143.075 135.5 143.672C136.054 144.269 136.332 145.069 136.332 146.072V151H134.268V146.216C134.268 145.736 134.15 145.363 133.916 145.096C133.681 144.829 133.35 144.696 132.924 144.696C132.454 144.696 132.086 144.851 131.82 145.16C131.564 145.469 131.436 145.917 131.436 146.504V151H129.372V146.216C129.372 145.736 129.254 145.363 129.02 145.096C128.785 144.829 128.454 144.696 128.028 144.696C127.569 144.696 127.201 144.851 126.924 145.16C126.657 145.469 126.524 145.917 126.524 146.504V151H124.46V143H126.524V143.848C127.004 143.133 127.745 142.776 128.748 142.776C129.729 142.776 130.454 143.16 130.924 143.928C131.457 143.16 132.252 142.776 133.308 142.776ZM141.573 151V149.352L145.397 145.416C146.25 144.52 146.677 143.773 146.677 143.176C146.677 142.739 146.538 142.387 146.261 142.12C145.994 141.853 145.647 141.72 145.221 141.72C144.378 141.72 143.754 142.157 143.349 143.032L141.493 141.944C141.845 141.176 142.351 140.589 143.013 140.184C143.674 139.779 144.399 139.576 145.189 139.576C146.202 139.576 147.071 139.896 147.797 140.536C148.522 141.165 148.885 142.019 148.885 143.096C148.885 144.259 148.271 145.453 147.045 146.68L144.853 148.872H149.061V151H141.573ZM152.745 150.808C152.478 151.075 152.158 151.208 151.785 151.208C151.411 151.208 151.091 151.075 150.825 150.808C150.558 150.541 150.425 150.221 150.425 149.848C150.425 149.475 150.558 149.155 150.825 148.888C151.091 148.621 151.411 148.488 151.785 148.488C152.158 148.488 152.478 148.621 152.745 148.888C153.011 149.155 153.145 149.475 153.145 149.848C153.145 150.221 153.011 150.541 152.745 150.808ZM158.478 151.224C157.08 151.224 155.982 150.696 155.182 149.64C154.392 148.573 153.998 147.16 153.998 145.4C153.998 143.64 154.392 142.232 155.182 141.176C155.982 140.109 157.08 139.576 158.478 139.576C159.886 139.576 160.984 140.109 161.774 141.176C162.563 142.232 162.958 143.64 162.958 145.4C162.958 147.16 162.563 148.573 161.774 149.64C160.984 150.696 159.886 151.224 158.478 151.224ZM156.782 148.136C157.166 148.755 157.731 149.064 158.478 149.064C159.224 149.064 159.79 148.749 160.174 148.12C160.568 147.491 160.766 146.584 160.766 145.4C160.766 144.205 160.568 143.293 160.174 142.664C159.79 142.035 159.224 141.72 158.478 141.72C157.731 141.72 157.166 142.035 156.782 142.664C156.398 143.293 156.206 144.205 156.206 145.4C156.206 146.595 156.398 147.507 156.782 148.136ZM166.135 150.808C165.869 151.075 165.549 151.208 165.175 151.208C164.802 151.208 164.482 151.075 164.215 150.808C163.949 150.541 163.815 150.221 163.815 149.848C163.815 149.475 163.949 149.155 164.215 148.888C164.482 148.621 164.802 148.488 165.175 148.488C165.549 148.488 165.869 148.621 166.135 148.888C166.402 149.155 166.535 149.475 166.535 149.848C166.535 150.221 166.402 150.541 166.135 150.808ZM176.529 139.8C177.606 139.8 178.513 140.163 179.249 140.888C179.985 141.613 180.352 142.504 180.352 143.56C180.352 144.616 179.985 145.507 179.249 146.232C178.513 146.957 177.606 147.32 176.529 147.32H174.561V151H172.353V139.8H176.529ZM176.529 145.256C176.998 145.256 177.387 145.096 177.697 144.776C178.006 144.445 178.161 144.04 178.161 143.56C178.161 143.069 178.006 142.664 177.697 142.344C177.387 142.024 176.998 141.864 176.529 141.864H174.561V145.256H176.529ZM187.934 151L185.678 147.112H183.998V151H181.79V139.8H186.27C187.305 139.8 188.185 140.163 188.91 140.888C189.635 141.613 189.998 142.488 189.998 143.512C189.998 144.205 189.801 144.851 189.406 145.448C189.011 146.035 188.489 146.477 187.838 146.776L190.318 151H187.934ZM183.998 141.864V145.176H186.27C186.686 145.176 187.043 145.016 187.342 144.696C187.641 144.365 187.79 143.971 187.79 143.512C187.79 143.053 187.641 142.664 187.342 142.344C187.043 142.024 186.686 141.864 186.27 141.864H183.998ZM200.917 149.544C199.786 150.664 198.41 151.224 196.789 151.224C195.168 151.224 193.792 150.664 192.661 149.544C191.541 148.413 190.981 147.032 190.981 145.4C190.981 143.768 191.541 142.392 192.661 141.272C193.792 140.141 195.168 139.576 196.789 139.576C198.41 139.576 199.786 140.141 200.917 141.272C202.048 142.392 202.613 143.768 202.613 145.4C202.613 147.032 202.048 148.413 200.917 149.544ZM194.213 148.04C194.906 148.723 195.765 149.064 196.789 149.064C197.813 149.064 198.672 148.723 199.365 148.04C200.058 147.347 200.405 146.467 200.405 145.4C200.405 144.333 200.058 143.453 199.365 142.76C198.672 142.067 197.813 141.72 196.789 141.72C195.765 141.72 194.906 142.067 194.213 142.76C193.52 143.453 193.173 144.333 193.173 145.4C193.173 146.467 193.52 147.347 194.213 148.04Z" fill="#2C2C2C"/>
<defs>
<filter id="filter0_d" x="14.2505" y="17.0344" width="223.334" height="224.827" filterUnits="userSpaceOnUse" color-interpolation-filters="sRGB">
<feFlood flood-opacity="0" result="BackgroundImageFix"/>
<feColorMatrix in="SourceAlpha" type="matrix" values="0 0 0 0 0 0 0 0 0 0 0 0 0 0 0 0 0 0 127 0"/>
<feOffset/>
<feGaussianBlur stdDeviation="10"/>
<feColorMatrix type="matrix" values="0 0 0 0 0.172549 0 0 0 0 0.172549 0 0 0 0 0.172549 0 0 0 0.14 0"/>
<feBlend mode="normal" in2="BackgroundImageFix" result="effect1_dropShadow"/>
<feBlend mode="normal" in="SourceGraphic" in2="effect1_dropShadow" result="shape"/>
</filter>
</defs>
</svg>
