<svg width="1058" height="296" viewBox="0 0 1058 296" fill="none" xmlns="http://www.w3.org/2000/svg">
<circle cx="4" cy="291" r="4" fill="#C4C4C4"/>
<circle cx="46" cy="206" r="4" fill="#C4C4C4"/>
<circle cx="26" cy="232" r="4" fill="#C4C4C4"/>
<circle cx="12" cy="262" r="4" fill="#C4C4C4"/>
<circle cx="73" cy="189" r="4" fill="#C4C4C4"/>
<circle cx="104" cy="178" r="4" fill="#C4C4C4"/>
<circle cx="137" cy="174" r="4" fill="#C4C4C4"/>
<circle cx="170" cy="178" r="4" fill="#C4C4C4"/>
<circle cx="201" cy="193" r="4" fill="#C4C4C4"/>
<circle cx="226" cy="210" r="4" fill="#C4C4C4"/>
<circle cx="246" cy="229" r="4" fill="#C4C4C4"/>
<circle cx="267" cy="248" r="4" fill="#C4C4C4"/>
<circle cx="4" cy="292" r="4" fill="#C4C4C4"/>
<circle cx="4" cy="292" r="4" fill="#C4C4C4"/>
<circle cx="309" cy="162" r="4" fill="#C4C4C4"/>
<circle cx="289" cy="188" r="4" fill="#C4C4C4"/>
<circle cx="275" cy="218" r="4" fill="#C4C4C4"/>
<circle cx="336" cy="145" r="4" fill="#C4C4C4"/>
<circle cx="367" cy="134" r="4" fill="#C4C4C4"/>
<circle cx="400" cy="130" r="4" fill="#C4C4C4"/>
<circle cx="433" cy="134" r="4" fill="#C4C4C4"/>
<circle cx="464" cy="149" r="4" fill="#C4C4C4"/>
<circle cx="489" cy="166" r="4" fill="#C4C4C4"/>
<circle cx="509" cy="185" r="4" fill="#C4C4C4"/>
<circle cx="530" cy="204" r="4" fill="#C4C4C4"/>
<circle cx="267" cy="248" r="4" fill="#C4C4C4"/>
<circle cx="267" cy="248" r="4" fill="#C4C4C4"/>
<circle cx="530" cy="204" r="4" fill="#C4C4C4"/>
<circle cx="572" cy="118" r="4" fill="#C4C4C4"/>
<circle cx="552" cy="144" r="4" fill="#C4C4C4"/>
<circle cx="538" cy="174" r="4" fill="#C4C4C4"/>
<circle cx="599" cy="101" r="4" fill="#C4C4C4"/>
<circle cx="630" cy="90" r="4" fill="#C4C4C4"/>
<circle cx="663" cy="86" r="4" fill="#C4C4C4"/>
<circle cx="696" cy="90" r="4" fill="#C4C4C4"/>
<circle cx="727" cy="105" r="4" fill="#C4C4C4"/>
<circle cx="752" cy="122" r="4" fill="#C4C4C4"/>
<circle cx="772" cy="141" r="4" fill="#C4C4C4"/>
<circle cx="793" cy="160" r="4" fill="#C4C4C4"/>
<circle cx="530" cy="204" r="4" fill="#C4C4C4"/>
<circle cx="530" cy="204" r="4" fill="#C4C4C4"/>
<circle cx="793" cy="160" r="4" fill="#C4C4C4"/>
<circle cx="835" cy="74" r="4" fill="#C4C4C4"/>
<circle cx="815" cy="100" r="4" fill="#C4C4C4"/>
<circle cx="801" cy="130" r="4" fill="#C4C4C4"/>
<circle cx="862" cy="57" r="4" fill="#C4C4C4"/>
<circle cx="893" cy="46" r="4" fill="#C4C4C4"/>
<circle cx="926" cy="42" r="4" fill="#C4C4C4"/>
<circle cx="959" cy="46" r="4" fill="#C4C4C4"/>
<circle cx="990" cy="61" r="4" fill="#C4C4C4"/>
<circle cx="1015" cy="78" r="4" fill="#C4C4C4"/>
<circle cx="1035" cy="97" r="4" fill="#C4C4C4"/>
<circle cx="1054" cy="122" r="4" fill="#C4C4C4"/>
<circle cx="793" cy="160" r="4" fill="#C4C4C4"/>
<circle cx="793" cy="160" r="4" fill="#C4C4C4"/>
<path d="M911.284 17L907.054 4.4H909.754L912.832 14.084L915.892 4.4H918.61L914.362 17H911.284ZM919.824 4.4H922.308V17H919.824V4.4ZM929.645 4.4C931.373 4.4 932.813 5.006 933.965 6.218C935.129 7.43 935.711 8.924 935.711 10.7C935.711 12.476 935.129 13.97 933.965 15.182C932.813 16.394 931.373 17 929.645 17H924.641V4.4H929.645ZM929.645 14.624C930.737 14.624 931.625 14.264 932.309 13.544C932.993 12.812 933.335 11.864 933.335 10.7C933.335 9.536 932.993 8.594 932.309 7.874C931.625 7.142 930.737 6.776 929.645 6.776H927.125V14.624H929.645Z" fill="#FAFAFA"/>
</svg>
