<svg width="127" height="18" viewBox="0 0 127 18" fill="none" xmlns="http://www.w3.org/2000/svg">
<path d="M15.5456 0.199999V17H13.8656V2.744L7.98563 12.584H7.74563L1.86563 2.744V17H0.185625V0.199999H2.27363L7.86563 9.56L13.4576 0.199999H15.5456ZM24.6849 4.712C26.4609 4.712 27.8929 5.344 28.9809 6.608C30.0849 7.856 30.6369 9.336 30.6369 11.048C30.6369 11.224 30.6209 11.472 30.5889 11.792H20.0529C20.2129 13.008 20.7249 13.976 21.5889 14.696C22.4689 15.4 23.5489 15.752 24.8289 15.752C25.7409 15.752 26.5249 15.568 27.1809 15.2C27.8529 14.816 28.3569 14.32 28.6929 13.712L30.0849 14.528C29.5569 15.376 28.8369 16.048 27.9249 16.544C27.0129 17.04 25.9729 17.288 24.8049 17.288C22.9169 17.288 21.3809 16.696 20.1969 15.512C19.0129 14.328 18.4209 12.824 18.4209 11C18.4209 9.208 19.0049 7.712 20.1729 6.512C21.3409 5.312 22.8449 4.712 24.6849 4.712ZM24.6849 6.248C23.4369 6.248 22.3889 6.624 21.5409 7.376C20.7089 8.112 20.2129 9.072 20.0529 10.256H29.0049C28.8449 8.992 28.3569 8.008 27.5409 7.304C26.7249 6.6 25.7729 6.248 24.6849 6.248ZM43.4766 0.199999H45.0606V17H43.4766V14.648C42.3726 16.408 40.7566 17.288 38.6286 17.288C36.9166 17.288 35.4526 16.68 34.2366 15.464C33.0366 14.248 32.4366 12.76 32.4366 11C32.4366 9.24 33.0366 7.752 34.2366 6.536C35.4526 5.32 36.9166 4.712 38.6286 4.712C40.7566 4.712 42.3726 5.592 43.4766 7.352V0.199999ZM35.3886 14.384C36.3006 15.296 37.4206 15.752 38.7486 15.752C40.0766 15.752 41.1966 15.296 42.1086 14.384C43.0206 13.456 43.4766 12.328 43.4766 11C43.4766 9.672 43.0206 8.552 42.1086 7.64C41.1966 6.712 40.0766 6.248 38.7486 6.248C37.4206 6.248 36.3006 6.712 35.3886 7.64C34.4766 8.552 34.0206 9.672 34.0206 11C34.0206 12.328 34.4766 13.456 35.3886 14.384ZM50.0224 2.12C49.7984 2.344 49.5264 2.456 49.2064 2.456C48.8864 2.456 48.6144 2.344 48.3904 2.12C48.1664 1.896 48.0544 1.624 48.0544 1.304C48.0544 0.983999 48.1664 0.711999 48.3904 0.487999C48.6144 0.263999 48.8864 0.151999 49.2064 0.151999C49.5264 0.151999 49.7984 0.263999 50.0224 0.487999C50.2464 0.711999 50.3584 0.983999 50.3584 1.304C50.3584 1.624 50.2464 1.896 50.0224 2.12ZM48.4144 17V5H49.9984V17H48.4144ZM63.6797 5H65.2637V17H63.6797V14.648C62.5757 16.408 60.9597 17.288 58.8317 17.288C57.1197 17.288 55.6557 16.68 54.4397 15.464C53.2397 14.248 52.6397 12.76 52.6397 11C52.6397 9.24 53.2397 7.752 54.4397 6.536C55.6557 5.32 57.1197 4.712 58.8317 4.712C60.9597 4.712 62.5757 5.592 63.6797 7.352V5ZM55.5917 14.384C56.5037 15.296 57.6237 15.752 58.9517 15.752C60.2797 15.752 61.3997 15.296 62.3117 14.384C63.2237 13.456 63.6797 12.328 63.6797 11C63.6797 9.672 63.2237 8.552 62.3117 7.64C61.3997 6.712 60.2797 6.248 58.9517 6.248C57.6237 6.248 56.5037 6.712 55.5917 7.64C54.6797 8.552 54.2237 9.672 54.2237 11C54.2237 12.328 54.6797 13.456 55.5917 14.384ZM74.2335 4.712C75.6895 4.712 76.8335 5.16 77.6655 6.056C78.5135 6.936 78.9375 8.128 78.9375 9.632V17H77.3535V9.632C77.3535 8.56 77.0655 7.728 76.4895 7.136C75.9295 6.544 75.1295 6.248 74.0895 6.248C72.9375 6.248 72.0015 6.616 71.2815 7.352C70.5615 8.072 70.2015 9.192 70.2015 10.712V17H68.6175V5H70.2015V6.872C71.0975 5.432 72.4415 4.712 74.2335 4.712ZM98.3203 5H99.9043V17H98.3203V14.648C97.2163 16.408 95.6003 17.288 93.4723 17.288C91.7603 17.288 90.2963 16.68 89.0803 15.464C87.8803 14.248 87.2803 12.76 87.2803 11C87.2803 9.24 87.8803 7.752 89.0803 6.536C90.2963 5.32 91.7603 4.712 93.4723 4.712C95.6003 4.712 97.2163 5.592 98.3203 7.352V5ZM90.2323 14.384C91.1443 15.296 92.2643 15.752 93.5923 15.752C94.9203 15.752 96.0403 15.296 96.9523 14.384C97.8643 13.456 98.3203 12.328 98.3203 11C98.3203 9.672 97.8643 8.552 96.9523 7.64C96.0403 6.712 94.9203 6.248 93.5923 6.248C92.2643 6.248 91.1443 6.712 90.2323 7.64C89.3203 8.552 88.8643 9.672 88.8643 11C88.8643 12.328 89.3203 13.456 90.2323 14.384ZM113.578 0.199999H115.162V17H113.578V14.648C112.474 16.408 110.858 17.288 108.73 17.288C107.018 17.288 105.554 16.68 104.338 15.464C103.138 14.248 102.538 12.76 102.538 11C102.538 9.24 103.138 7.752 104.338 6.536C105.554 5.32 107.018 4.712 108.73 4.712C110.858 4.712 112.474 5.592 113.578 7.352V0.199999ZM105.49 14.384C106.402 15.296 107.522 15.752 108.85 15.752C110.178 15.752 111.298 15.296 112.21 14.384C113.122 13.456 113.578 12.328 113.578 11C113.578 9.672 113.122 8.552 112.21 7.64C111.298 6.712 110.178 6.248 108.85 6.248C107.522 6.248 106.402 6.712 105.49 7.64C104.578 8.552 104.122 9.672 104.122 11C104.122 12.328 104.578 13.456 105.49 14.384ZM119.764 8.144C119.764 8.688 120.004 9.12 120.484 9.44C120.964 9.76 121.548 10.008 122.236 10.184C122.924 10.36 123.612 10.56 124.3 10.784C124.988 10.992 125.572 11.352 126.052 11.864C126.532 12.36 126.772 13.016 126.772 13.832C126.772 14.856 126.364 15.688 125.548 16.328C124.748 16.968 123.708 17.288 122.428 17.288C121.276 17.288 120.292 17.032 119.476 16.52C118.676 16.008 118.116 15.344 117.796 14.528L119.14 13.736C119.364 14.36 119.764 14.856 120.34 15.224C120.932 15.576 121.628 15.752 122.428 15.752C123.212 15.752 123.868 15.6 124.396 15.296C124.924 14.976 125.188 14.488 125.188 13.832C125.188 13.288 124.948 12.856 124.468 12.536C123.988 12.216 123.404 11.968 122.716 11.792C122.028 11.616 121.34 11.424 120.652 11.216C119.964 10.992 119.38 10.632 118.9 10.136C118.42 9.624 118.18 8.96 118.18 8.144C118.18 7.168 118.564 6.352 119.332 5.696C120.116 5.04 121.1 4.712 122.284 4.712C123.26 4.712 124.116 4.936 124.852 5.384C125.588 5.816 126.132 6.408 126.484 7.16L125.164 7.928C124.7 6.808 123.74 6.248 122.284 6.248C121.596 6.248 121.004 6.416 120.508 6.752C120.012 7.072 119.764 7.536 119.764 8.144Z" fill="#FAFAFA"/>
</svg>
