<svg width="45" height="45" viewBox="0 0 45 45" fill="none" xmlns="http://www.w3.org/2000/svg">
<g clip-path="url(#clip0)">
<path d="M22.5 44.999C34.9264 44.999 45 34.9254 45 22.499C45 10.0726 34.9264 -0.000976562 22.5 -0.000976562C10.0736 -0.000976562 0 10.0726 0 22.499C0 34.9254 10.0736 44.999 22.5 44.999Z" fill="#7A6DFF"/>
<path d="M35.9434 24.3098V33.5861H30.5653V24.9315C30.5653 22.7584 29.7888 21.2744 27.8415 21.2744C26.3555 21.2744 25.4727 22.2735 25.0829 23.2409C24.9413 23.5866 24.9048 24.0667 24.9048 24.5516V33.5857H19.5263C19.5263 33.5857 19.5985 18.9277 19.5263 17.4104H24.9052V19.7025C24.8944 19.7206 24.8791 19.7382 24.8695 19.7555H24.9052V19.7025C25.6199 18.6028 26.8946 17.0305 29.7523 17.0305C33.2907 17.0305 35.9434 19.3424 35.9434 24.3098ZM13.8999 9.61328C12.0601 9.61328 10.8564 10.8209 10.8564 12.4076C10.8564 13.9606 12.0252 15.2032 13.8293 15.2032H13.8642C15.74 15.2032 16.9064 13.9606 16.9064 12.4076C16.8707 10.8209 15.74 9.61328 13.8999 9.61328ZM11.1761 33.5861H16.5526V17.4104H11.1761V33.5861Z" fill="#FAFAFA"/>
</g>
<defs>
<clipPath id="clip0">
<rect width="45" height="45" fill="white"/>
</clipPath>
</defs>
</svg>
