<svg width="45" height="45" viewBox="0 0 45 45" fill="none" xmlns="http://www.w3.org/2000/svg">
<path d="M22.5 45C34.9264 45 45 34.9264 45 22.5C45 10.0736 34.9264 0 22.5 0C10.0736 0 0 10.0736 0 22.5C0 34.9264 10.0736 45 22.5 45Z" fill="#6D5FFF"/>
<path d="M10.2953 22.0126L31.989 13.6483C32.9959 13.2845 33.8753 13.8939 33.549 15.4164L33.5509 15.4145L29.8571 32.8164C29.5834 34.0501 28.8503 34.3501 27.8246 33.7689L22.1996 29.6233L19.4865 32.237C19.1865 32.537 18.9334 32.7901 18.3521 32.7901L18.7515 27.0658L29.1765 17.6476C29.6303 17.2483 29.0753 17.0233 28.4771 17.4208L15.594 25.532L10.0403 23.7995C8.83464 23.417 8.80839 22.5939 10.2953 22.0126Z" fill="#FAFAFA"/>
</svg>
