<svg width="97" height="14" viewBox="0 0 97 14" fill="none" xmlns="http://www.w3.org/2000/svg">
<path d="M12.5 0.399999V13H10.034V4.828L6.488 10.678H6.2L2.654 4.846V13H0.17V0.399999H2.726L6.344 6.358L9.944 0.399999H12.5ZM16.7017 9.454C17.0137 10.582 17.8597 11.146 19.2397 11.146C20.1277 11.146 20.7997 10.846 21.2557 10.246L23.1277 11.326C22.2397 12.61 20.9317 13.252 19.2037 13.252C17.7157 13.252 16.5217 12.802 15.6217 11.902C14.7217 11.002 14.2717 9.868 14.2717 8.5C14.2717 7.144 14.7157 6.016 15.6037 5.116C16.4917 4.204 17.6317 3.748 19.0237 3.748C20.3437 3.748 21.4297 4.204 22.2817 5.116C23.1457 6.028 23.5777 7.156 23.5777 8.5C23.5777 8.8 23.5477 9.118 23.4877 9.454H16.7017ZM16.6657 7.654H21.2557C21.1237 7.042 20.8477 6.586 20.4277 6.286C20.0197 5.986 19.5517 5.836 19.0237 5.836C18.3997 5.836 17.8837 5.998 17.4757 6.322C17.0677 6.634 16.7977 7.078 16.6657 7.654ZM31.9504 0.399999H34.2724V13H31.9504V11.938C31.2664 12.814 30.2944 13.252 29.0344 13.252C27.8224 13.252 26.7844 12.796 25.9204 11.884C25.0684 10.96 24.6424 9.832 24.6424 8.5C24.6424 7.168 25.0684 6.046 25.9204 5.134C26.7844 4.21 27.8224 3.748 29.0344 3.748C30.2944 3.748 31.2664 4.186 31.9504 5.062V0.399999ZM27.6664 10.336C28.1464 10.804 28.7464 11.038 29.4664 11.038C30.1864 11.038 30.7804 10.804 31.2484 10.336C31.7164 9.856 31.9504 9.244 31.9504 8.5C31.9504 7.756 31.7164 7.15 31.2484 6.682C30.7804 6.202 30.1864 5.962 29.4664 5.962C28.7464 5.962 28.1464 6.202 27.6664 6.682C27.1984 7.15 26.9644 7.756 26.9644 8.5C26.9644 9.244 27.1984 9.856 27.6664 10.336ZM37.548 2.92C37.164 2.92 36.828 2.782 36.54 2.506C36.264 2.218 36.126 1.882 36.126 1.498C36.126 1.114 36.264 0.778 36.54 0.489999C36.828 0.201999 37.164 0.0579993 37.548 0.0579993C37.944 0.0579993 38.28 0.201999 38.556 0.489999C38.844 0.778 38.988 1.114 38.988 1.498C38.988 1.882 38.844 2.218 38.556 2.506C38.28 2.782 37.944 2.92 37.548 2.92ZM36.396 13V4H38.718V13H36.396ZM47.6833 4H50.0053V13H47.6833V11.938C46.9873 12.814 46.0093 13.252 44.7493 13.252C43.5493 13.252 42.5173 12.796 41.6533 11.884C40.8013 10.96 40.3752 9.832 40.3752 8.5C40.3752 7.168 40.8013 6.046 41.6533 5.134C42.5173 4.21 43.5493 3.748 44.7493 3.748C46.0093 3.748 46.9873 4.186 47.6833 5.062V4ZM43.3993 10.336C43.8673 10.804 44.4613 11.038 45.1813 11.038C45.9013 11.038 46.4953 10.804 46.9633 10.336C47.4433 9.856 47.6833 9.244 47.6833 8.5C47.6833 7.756 47.4433 7.15 46.9633 6.682C46.4953 6.202 45.9013 5.962 45.1813 5.962C44.4613 5.962 43.8673 6.202 43.3993 6.682C42.9313 7.15 42.6973 7.756 42.6973 8.5C42.6973 9.244 42.9313 9.856 43.3993 10.336ZM57.1148 3.748C58.0988 3.748 58.9088 4.078 59.5448 4.738C60.1928 5.398 60.5168 6.31 60.5168 7.474V13H58.1948V7.762C58.1948 7.162 58.0328 6.706 57.7088 6.394C57.3848 6.07 56.9528 5.908 56.4128 5.908C55.8128 5.908 55.3328 6.094 54.9728 6.466C54.6128 6.838 54.4328 7.396 54.4328 8.14V13H52.1108V4H54.4328V5.008C54.9968 4.168 55.8908 3.748 57.1148 3.748ZM73.8395 4H76.1615V13H73.8395V11.938C73.1435 12.814 72.1655 13.252 70.9055 13.252C69.7055 13.252 68.6735 12.796 67.8095 11.884C66.9575 10.96 66.5315 9.832 66.5315 8.5C66.5315 7.168 66.9575 6.046 67.8095 5.134C68.6735 4.21 69.7055 3.748 70.9055 3.748C72.1655 3.748 73.1435 4.186 73.8395 5.062V4ZM69.5555 10.336C70.0235 10.804 70.6175 11.038 71.3375 11.038C72.0575 11.038 72.6515 10.804 73.1195 10.336C73.5995 9.856 73.8395 9.244 73.8395 8.5C73.8395 7.756 73.5995 7.15 73.1195 6.682C72.6515 6.202 72.0575 5.962 71.3375 5.962C70.6175 5.962 70.0235 6.202 69.5555 6.682C69.0875 7.15 68.8535 7.756 68.8535 8.5C68.8535 9.244 69.0875 9.856 69.5555 10.336ZM85.0891 0.399999H87.4111V13H85.0891V11.938C84.4051 12.814 83.4331 13.252 82.1731 13.252C80.9611 13.252 79.9231 12.796 79.0591 11.884C78.2071 10.96 77.7811 9.832 77.7811 8.5C77.7811 7.168 78.2071 6.046 79.0591 5.134C79.9231 4.21 80.9611 3.748 82.1731 3.748C83.4331 3.748 84.4051 4.186 85.0891 5.062V0.399999ZM80.8051 10.336C81.2851 10.804 81.8851 11.038 82.6051 11.038C83.3251 11.038 83.9191 10.804 84.3871 10.336C84.8551 9.856 85.0891 9.244 85.0891 8.5C85.0891 7.756 84.8551 7.15 84.3871 6.682C83.9191 6.202 83.3251 5.962 82.6051 5.962C81.8851 5.962 81.2851 6.202 80.8051 6.682C80.3371 7.15 80.1031 7.756 80.1031 8.5C80.1031 9.244 80.3371 9.856 80.8051 10.336ZM91.6063 6.556C91.6063 6.796 91.7623 6.994 92.0743 7.15C92.3983 7.294 92.7883 7.426 93.2443 7.546C93.7003 7.654 94.1563 7.798 94.6123 7.978C95.0683 8.146 95.4523 8.434 95.7643 8.842C96.0883 9.25 96.2503 9.76 96.2503 10.372C96.2503 11.296 95.9023 12.01 95.2063 12.514C94.5223 13.006 93.6643 13.252 92.6323 13.252C90.7843 13.252 89.5243 12.538 88.8523 11.11L90.8683 9.976C91.1323 10.756 91.7203 11.146 92.6323 11.146C93.4603 11.146 93.8743 10.888 93.8743 10.372C93.8743 10.132 93.7123 9.94 93.3883 9.796C93.0763 9.64 92.6923 9.502 92.2363 9.382C91.7803 9.262 91.3243 9.112 90.8683 8.932C90.4123 8.752 90.0223 8.47 89.6983 8.086C89.3863 7.69 89.2303 7.198 89.2303 6.61C89.2303 5.722 89.5543 5.026 90.2023 4.522C90.8623 4.006 91.6783 3.748 92.6503 3.748C93.3823 3.748 94.0483 3.916 94.6483 4.252C95.2483 4.576 95.7223 5.044 96.0703 5.656L94.0903 6.736C93.8023 6.124 93.3223 5.818 92.6503 5.818C92.3503 5.818 92.0983 5.884 91.8943 6.016C91.7023 6.148 91.6063 6.328 91.6063 6.556Z" fill="white"/>
</svg>
