<svg width="35" height="35" viewBox="0 0 35 35" fill="none" xmlns="http://www.w3.org/2000/svg">
<g clip-path="url(#clip0)">
<path d="M17.5 34.999C27.165 34.999 35 27.164 35 17.499C35 7.83402 27.165 -0.000999451 17.5 -0.000999451C7.83502 -0.000999451 0 7.83402 0 17.499C0 27.164 7.83502 34.999 17.5 34.999Z" fill="#FAFAFA"/>
<path d="M27.9564 18.9078V26.1227H23.7734V19.3914C23.7734 17.7012 23.1695 16.547 21.655 16.547C20.4992 16.547 19.8126 17.324 19.5093 18.0765C19.3992 18.3454 19.3708 18.7188 19.3708 19.0959V26.1224H15.1875C15.1875 26.1224 15.2437 14.7217 15.1875 13.5416H19.3712V15.3244C19.3627 15.3385 19.3509 15.3522 19.3434 15.3656H19.3712V15.3244C19.9271 14.469 20.9184 13.2462 23.1411 13.2462C25.8932 13.2462 27.9564 15.0443 27.9564 18.9078ZM10.8114 7.47721C9.38051 7.47721 8.44434 8.41651 8.44434 9.6506C8.44434 10.8585 9.35337 11.8249 10.7565 11.8249H10.7837C12.2427 11.8249 13.1499 10.8585 13.1499 9.6506C13.1221 8.41651 12.2427 7.47721 10.8114 7.47721ZM8.69296 26.1227H12.8747V13.5416H8.69296V26.1227Z" fill="#2C2C2C"/>
</g>
<defs>
<clipPath id="clip0">
<rect width="35" height="35" fill="white"/>
</clipPath>
</defs>
</svg>
