<svg width="35" height="35" viewBox="0 0 35 35" fill="none" xmlns="http://www.w3.org/2000/svg">
<g opacity="0.91">
<path d="M17.5 35C27.165 35 35 27.165 35 17.5C35 7.83502 27.165 0 17.5 0C7.83502 0 0 7.83502 0 17.5C0 27.165 7.83502 35 17.5 35Z" fill="#FAFAFA"/>
<path d="M8.00797 17.1207L24.8809 10.6151C25.664 10.3322 26.348 10.8062 26.0942 11.9903L26.0957 11.9889L23.2228 25.5237C23.0098 26.4832 22.4396 26.7166 21.6419 26.2645L17.2669 23.0401L15.1567 25.073C14.9234 25.3064 14.7265 25.5032 14.2744 25.5032L14.5851 21.0509L22.6934 13.7257C23.0463 13.4151 22.6146 13.2401 22.1494 13.5493L12.1292 19.858L7.80964 18.5105C6.87193 18.213 6.85151 17.5728 8.00797 17.1207Z" fill="#2C2C2C"/>
</g>
</svg>
