<svg width="98" height="98" viewBox="0 0 98 98" fill="none" xmlns="http://www.w3.org/2000/svg">
<g clip-path="url(#clip0)">
<path d="M49 97.999C76.062 97.999 98 76.061 98 48.999C98 21.9371 76.062 -0.000976562 49 -0.000976562C21.938 -0.000976562 0 21.9371 0 48.999C0 76.061 21.938 97.999 49 97.999Z" fill="#007AB9"/>
<path d="M78.2774 52.942V73.1437H66.5651V54.2959C66.5651 49.5634 64.874 46.3316 60.6333 46.3316C57.3971 46.3316 55.4746 48.5074 54.6256 50.6142C54.3172 51.3671 54.2378 52.4127 54.2378 53.4687V73.1428H42.5245C42.5245 73.1428 42.6817 41.2209 42.5245 37.9166H54.2386V42.9085C54.2151 42.9478 54.1819 42.9862 54.1609 43.0238H54.2386V42.9085C55.7952 40.5134 58.5711 37.0894 64.7945 37.0894C72.5003 37.0894 78.2774 42.1241 78.2774 52.942ZM30.2715 20.9363C26.2648 20.9363 23.6436 23.5663 23.6436 27.0218C23.6436 30.4038 26.1888 33.1098 30.1177 33.1098H30.1937C34.2789 33.1098 36.819 30.4038 36.819 27.0218C36.7413 23.5663 34.2789 20.9363 30.2715 20.9363ZM24.3397 73.1437H36.0486V37.9166H24.3397V73.1437Z" fill="#F1F2F2"/>
</g>
<defs>
<clipPath id="clip0">
<rect width="98" height="98" fill="white"/>
</clipPath>
</defs>
</svg>
