<svg width="119" height="119" viewBox="0 0 119 119" fill="none" xmlns="http://www.w3.org/2000/svg">
<g clip-path="url(#clip0)">
<path d="M59.5 118.999C92.3609 118.999 119 92.36 119 59.499C119 26.6381 92.3609 -0.000976562 59.5 -0.000976562C26.6391 -0.000976562 0 26.6381 0 59.499C0 92.36 26.6391 118.999 59.5 118.999Z" fill="#007AB9"/>
<path d="M95.0506 64.287V88.8175H80.8285V65.931C80.8285 60.1844 78.775 56.26 73.6256 56.26C69.6959 56.26 67.3615 58.9021 66.3305 61.4603C65.9561 62.3746 65.8596 63.6442 65.8596 64.9265V88.8165H51.6363C51.6363 88.8165 51.8273 50.0542 51.6363 46.0418H65.8606V52.1033C65.832 52.1511 65.7917 52.1977 65.7663 52.2434H65.8606V52.1033C67.7507 49.1951 71.1214 45.0373 78.6785 45.0373C88.0355 45.0373 95.0506 51.1509 95.0506 64.287ZM36.7576 25.4229C31.8925 25.4229 28.7095 28.6165 28.7095 32.8124C28.7095 36.9192 31.8002 40.205 36.571 40.205H36.6632C41.6239 40.205 44.7082 36.9192 44.7082 32.8124C44.6138 28.6165 41.6239 25.4229 36.7576 25.4229ZM29.5548 88.8175H43.7727V46.0418H29.5548V88.8175Z" fill="#F1F2F2"/>
</g>
<defs>
<clipPath id="clip0">
<rect width="119" height="119" fill="white"/>
</clipPath>
</defs>
</svg>
