<svg width="119" height="119" viewBox="0 0 119 119" fill="none" xmlns="http://www.w3.org/2000/svg">
<path d="M59.5005 118.999C92.3611 118.999 119 92.3601 119 59.4995C119 26.6388 92.3611 0 59.5005 0C26.6398 0 0.000976562 26.6388 0.000976562 59.4995C0.000976562 92.3601 26.6398 118.999 59.5005 118.999Z" fill="#55ACEE"/>
<path d="M95.946 42.7606C93.3962 43.8912 90.6534 44.6559 87.777 44.9975C90.7139 43.2379 92.9677 40.4537 94.0315 37.1307C91.2834 38.7609 88.2383 39.9435 85.0002 40.581C82.4059 37.818 78.7096 36.0913 74.6166 36.0913C66.7637 36.0913 60.3945 42.4604 60.3945 50.3134C60.3945 51.4281 60.5208 52.5131 60.7647 53.5547C48.945 52.9618 38.4649 47.3001 31.4498 38.693C30.2259 40.7931 29.5237 43.2379 29.5237 45.8438C29.5237 50.7769 32.0364 55.1318 35.8504 57.6816C33.5202 57.6084 31.3257 56.9688 29.4092 55.9008C29.4081 55.9612 29.4081 56.0217 29.4081 56.0811C29.4081 62.972 34.3125 68.7196 40.8174 70.0253C39.6252 70.3519 38.3662 70.5248 37.0712 70.5248C36.1527 70.5248 35.2628 70.4368 34.3952 70.2713C36.2047 75.9203 41.4559 80.0323 47.6807 80.1479C42.8124 83.963 36.6809 86.236 30.0158 86.236C28.8704 86.236 27.7355 86.1692 26.625 86.0366C32.9156 90.0734 40.3931 92.4269 48.4242 92.4269C74.5837 92.4269 88.8896 70.756 88.8896 51.9605C88.8896 51.3443 88.8758 50.7302 88.8482 50.1214C91.6292 48.1168 94.04 45.6126 95.946 42.7606Z" fill="#F1F2F2"/>
</svg>
