<svg width="98" height="98" viewBox="0 0 98 98" fill="none" xmlns="http://www.w3.org/2000/svg">
<g clip-path="url(#clip0)">
<path d="M49.0005 97.9991C76.0623 97.9991 98.0001 76.0613 98.0001 48.9996C98.0001 21.9379 76.0623 0 49.0005 0C21.9388 0 0.000976562 21.9379 0.000976562 48.9996C0.000976562 76.0613 21.9388 97.9991 49.0005 97.9991Z" fill="#55ACEE"/>
<path d="M79.0146 35.2145C76.9148 36.1456 74.656 36.7754 72.2872 37.0566C74.7058 35.6076 76.5619 33.3147 77.438 30.5782C75.1749 31.9207 72.6671 32.8946 70.0005 33.4195C67.864 31.1442 64.8199 29.7222 61.4492 29.7222C54.9821 29.7222 49.737 34.9673 49.737 41.4344C49.737 42.3525 49.8409 43.246 50.0418 44.1037C40.3079 43.6155 31.6772 38.9529 25.9001 31.8648C24.8922 33.5942 24.3139 35.6076 24.3139 37.7537C24.3139 41.8161 26.3832 45.4026 29.5241 47.5024C27.6051 47.4421 25.7979 46.9154 24.2196 46.0359C24.2187 46.0856 24.2187 46.1354 24.2187 46.1843C24.2187 51.8592 28.2576 56.5925 33.6146 57.6678C32.6328 57.9368 31.596 58.0792 30.5295 58.0792C29.7731 58.0792 29.0402 58.0067 28.3258 57.8704C29.8159 62.5225 34.1404 65.9089 39.2668 66.0041C35.2576 69.146 30.2081 71.0178 24.7192 71.0178C23.7759 71.0178 22.8413 70.9628 21.9268 70.8536C27.1073 74.178 33.2652 76.1162 39.8791 76.1162C61.4222 76.1162 73.2034 58.2696 73.2034 42.7909C73.2034 42.2835 73.1921 41.7777 73.1694 41.2763C75.4596 39.6255 77.445 37.5633 79.0146 35.2145Z" fill="#F1F2F2"/>
</g>
<defs>
<clipPath id="clip0">
<rect width="98" height="98" fill="white"/>
</clipPath>
</defs>
</svg>
